<mxfile host="Electron" agent="Mozilla/5.0 (Windows NT 10.0; Win64; x64) AppleWebKit/537.36 (KHTML, like Gecko) draw.io/28.1.2 Chrome/138.0.7204.243 Electron/37.4.0 Safari/537.36" version="28.1.2">
  <diagram name="Page-1" id="Hzz9yzbzQp2Sr_K5bTyt">
    <mxGraphModel dx="1426" dy="841" grid="1" gridSize="10" guides="1" tooltips="1" connect="1" arrows="1" fold="1" page="1" pageScale="1" pageWidth="850" pageHeight="1100" math="0" shadow="0">
      <root>
        <mxCell id="0" />
        <mxCell id="1" parent="0" />
        <mxCell id="YiKrchmCfp7j1CqisssC-1" value="" style="rounded=0;whiteSpace=wrap;html=1;fillColor=none;strokeColor=#1A1A1A;dashed=1;" parent="1" vertex="1">
          <mxGeometry x="61.25" y="383" width="151" height="397" as="geometry" />
        </mxCell>
        <mxCell id="YiKrchmCfp7j1CqisssC-2" value="&lt;b&gt;&lt;font style=&quot;font-size: 20px;&quot;&gt;Source&lt;/font&gt;&lt;/b&gt;" style="rounded=0;whiteSpace=wrap;html=1;fillColor=default;strokeColor=none;" parent="1" vertex="1">
          <mxGeometry x="95" y="370" width="81" height="30" as="geometry" />
        </mxCell>
        <mxCell id="YiKrchmCfp7j1CqisssC-21" style="edgeStyle=orthogonalEdgeStyle;rounded=0;orthogonalLoop=1;jettySize=auto;html=1;entryX=0;entryY=0.5;entryDx=0;entryDy=0;" parent="1" source="YiKrchmCfp7j1CqisssC-3" target="YiKrchmCfp7j1CqisssC-14" edge="1">
          <mxGeometry relative="1" as="geometry">
            <Array as="points">
              <mxPoint x="131" y="510" />
            </Array>
          </mxGeometry>
        </mxCell>
        <mxCell id="YiKrchmCfp7j1CqisssC-22" style="edgeStyle=orthogonalEdgeStyle;rounded=0;orthogonalLoop=1;jettySize=auto;html=1;" parent="1" source="YiKrchmCfp7j1CqisssC-3" target="YiKrchmCfp7j1CqisssC-13" edge="1">
          <mxGeometry relative="1" as="geometry">
            <Array as="points">
              <mxPoint x="131" y="510" />
              <mxPoint x="248" y="510" />
              <mxPoint x="248" y="460" />
            </Array>
          </mxGeometry>
        </mxCell>
        <mxCell id="YiKrchmCfp7j1CqisssC-23" style="edgeStyle=orthogonalEdgeStyle;rounded=0;orthogonalLoop=1;jettySize=auto;html=1;entryX=0;entryY=0.5;entryDx=0;entryDy=0;" parent="1" source="YiKrchmCfp7j1CqisssC-3" target="YiKrchmCfp7j1CqisssC-15" edge="1">
          <mxGeometry relative="1" as="geometry">
            <Array as="points">
              <mxPoint x="131" y="510" />
              <mxPoint x="248" y="510" />
              <mxPoint x="248" y="570" />
              <mxPoint x="340" y="570" />
            </Array>
          </mxGeometry>
        </mxCell>
        <mxCell id="YiKrchmCfp7j1CqisssC-3" value="" style="sketch=0;aspect=fixed;pointerEvents=1;shadow=0;dashed=0;html=1;strokeColor=none;labelPosition=center;verticalLabelPosition=bottom;verticalAlign=top;align=center;fillColor=#00188D;shape=mxgraph.mscae.enterprise.folder" parent="1" vertex="1">
          <mxGeometry x="106.25" y="480" width="50" height="43" as="geometry" />
        </mxCell>
        <mxCell id="YiKrchmCfp7j1CqisssC-4" value="" style="sketch=0;outlineConnect=0;fontColor=#232F3E;gradientColor=none;strokeColor=#ffffff;fillColor=#232F3E;dashed=0;verticalLabelPosition=middle;verticalAlign=bottom;align=center;html=1;whiteSpace=wrap;fontSize=10;fontStyle=1;spacing=3;shape=mxgraph.aws4.productIcon;prIcon=mxgraph.aws4.elastic_file_system;" parent="1" vertex="1">
          <mxGeometry x="127.75" y="510" width="28.5" height="20" as="geometry" />
        </mxCell>
        <mxCell id="YiKrchmCfp7j1CqisssC-27" style="edgeStyle=orthogonalEdgeStyle;rounded=0;orthogonalLoop=1;jettySize=auto;html=1;entryX=0;entryY=0.5;entryDx=0;entryDy=0;" parent="1" source="YiKrchmCfp7j1CqisssC-5" target="YiKrchmCfp7j1CqisssC-25" edge="1">
          <mxGeometry relative="1" as="geometry">
            <Array as="points">
              <mxPoint x="131" y="690" />
            </Array>
          </mxGeometry>
        </mxCell>
        <mxCell id="YiKrchmCfp7j1CqisssC-28" style="edgeStyle=orthogonalEdgeStyle;rounded=0;orthogonalLoop=1;jettySize=auto;html=1;entryX=0;entryY=0.5;entryDx=0;entryDy=0;" parent="1" source="YiKrchmCfp7j1CqisssC-5" target="YiKrchmCfp7j1CqisssC-24" edge="1">
          <mxGeometry relative="1" as="geometry">
            <Array as="points">
              <mxPoint x="131" y="690" />
              <mxPoint x="250" y="690" />
              <mxPoint x="250" y="640" />
            </Array>
          </mxGeometry>
        </mxCell>
        <mxCell id="YiKrchmCfp7j1CqisssC-29" style="edgeStyle=orthogonalEdgeStyle;rounded=0;orthogonalLoop=1;jettySize=auto;html=1;entryX=0;entryY=0.5;entryDx=0;entryDy=0;" parent="1" source="YiKrchmCfp7j1CqisssC-5" target="YiKrchmCfp7j1CqisssC-26" edge="1">
          <mxGeometry relative="1" as="geometry">
            <Array as="points">
              <mxPoint x="131" y="690" />
              <mxPoint x="250" y="690" />
              <mxPoint x="250" y="740" />
            </Array>
          </mxGeometry>
        </mxCell>
        <mxCell id="YiKrchmCfp7j1CqisssC-5" value="" style="sketch=0;aspect=fixed;pointerEvents=1;shadow=0;dashed=0;html=1;strokeColor=none;labelPosition=center;verticalLabelPosition=bottom;verticalAlign=top;align=center;fillColor=#00188D;shape=mxgraph.mscae.enterprise.folder" parent="1" vertex="1">
          <mxGeometry x="105" y="660" width="50" height="43" as="geometry" />
        </mxCell>
        <mxCell id="YiKrchmCfp7j1CqisssC-6" value="" style="sketch=0;outlineConnect=0;fontColor=#232F3E;gradientColor=none;strokeColor=#ffffff;fillColor=#232F3E;dashed=0;verticalLabelPosition=middle;verticalAlign=bottom;align=center;html=1;whiteSpace=wrap;fontSize=10;fontStyle=1;spacing=3;shape=mxgraph.aws4.productIcon;prIcon=mxgraph.aws4.elastic_file_system;" parent="1" vertex="1">
          <mxGeometry x="129" y="690" width="26" height="20" as="geometry" />
        </mxCell>
        <mxCell id="YiKrchmCfp7j1CqisssC-7" value="ERP" style="text;strokeColor=none;align=center;fillColor=none;html=1;verticalAlign=middle;whiteSpace=wrap;rounded=0;" parent="1" vertex="1">
          <mxGeometry x="103.75" y="540" width="61" height="20" as="geometry" />
        </mxCell>
        <mxCell id="YiKrchmCfp7j1CqisssC-8" value="CRM" style="text;strokeColor=none;align=center;fillColor=none;html=1;verticalAlign=middle;whiteSpace=wrap;rounded=0;" parent="1" vertex="1">
          <mxGeometry x="107.5" y="720" width="56" height="20" as="geometry" />
        </mxCell>
        <mxCell id="YiKrchmCfp7j1CqisssC-11" value="" style="rounded=1;whiteSpace=wrap;html=1;arcSize=19;fillColor=none;strokeColor=#b46504;" parent="1" vertex="1">
          <mxGeometry x="329.75" y="420" width="185.5" height="360" as="geometry" />
        </mxCell>
        <mxCell id="YiKrchmCfp7j1CqisssC-12" value="&lt;font style=&quot;font-size: 20px;&quot;&gt;Bronze Layer&lt;/font&gt;" style="rounded=1;whiteSpace=wrap;html=1;arcSize=28;fillColor=#fad7ac;strokeColor=#b46504;" parent="1" vertex="1">
          <mxGeometry x="337.5" y="370" width="170" height="40" as="geometry" />
        </mxCell>
        <mxCell id="NV5Ebfo3lkB90F4JYU58-21" style="edgeStyle=orthogonalEdgeStyle;rounded=0;orthogonalLoop=1;jettySize=auto;html=1;" parent="1" source="YiKrchmCfp7j1CqisssC-13" target="NV5Ebfo3lkB90F4JYU58-11" edge="1">
          <mxGeometry relative="1" as="geometry">
            <Array as="points">
              <mxPoint x="530" y="453" />
              <mxPoint x="530" y="453" />
            </Array>
          </mxGeometry>
        </mxCell>
        <mxCell id="YiKrchmCfp7j1CqisssC-13" value="&lt;font style=&quot;font-size: 15px; color: rgb(0, 0, 0);&quot;&gt;crm_sales_details&lt;/font&gt;" style="rounded=1;whiteSpace=wrap;html=1;arcSize=28;fillColor=#fad7ac;strokeColor=#b46504;" parent="1" vertex="1">
          <mxGeometry x="340" y="440" width="165" height="40" as="geometry" />
        </mxCell>
        <mxCell id="NV5Ebfo3lkB90F4JYU58-22" style="edgeStyle=orthogonalEdgeStyle;rounded=0;orthogonalLoop=1;jettySize=auto;html=1;entryX=0;entryY=0.5;entryDx=0;entryDy=0;" parent="1" source="YiKrchmCfp7j1CqisssC-14" target="NV5Ebfo3lkB90F4JYU58-12" edge="1">
          <mxGeometry relative="1" as="geometry">
            <Array as="points">
              <mxPoint x="530" y="503" />
              <mxPoint x="530" y="503" />
            </Array>
          </mxGeometry>
        </mxCell>
        <mxCell id="YiKrchmCfp7j1CqisssC-14" value="&lt;font style=&quot;font-size: 15px; color: rgb(0, 0, 0);&quot;&gt;crm_cust_info&lt;/font&gt;" style="rounded=1;whiteSpace=wrap;html=1;arcSize=28;fillColor=#fad7ac;strokeColor=#b46504;" parent="1" vertex="1">
          <mxGeometry x="340" y="490" width="165" height="40" as="geometry" />
        </mxCell>
        <mxCell id="NV5Ebfo3lkB90F4JYU58-23" value="" style="edgeStyle=orthogonalEdgeStyle;rounded=0;orthogonalLoop=1;jettySize=auto;html=1;" parent="1" source="YiKrchmCfp7j1CqisssC-15" target="NV5Ebfo3lkB90F4JYU58-13" edge="1">
          <mxGeometry relative="1" as="geometry">
            <Array as="points">
              <mxPoint x="530" y="553" />
              <mxPoint x="530" y="553" />
            </Array>
          </mxGeometry>
        </mxCell>
        <mxCell id="YiKrchmCfp7j1CqisssC-15" value="&lt;font style=&quot;font-size: 15px; color: rgb(0, 0, 0);&quot;&gt;crm_prd_info&lt;/font&gt;" style="rounded=1;whiteSpace=wrap;html=1;arcSize=28;fillColor=#fad7ac;strokeColor=#b46504;" parent="1" vertex="1">
          <mxGeometry x="340" y="540" width="165" height="40" as="geometry" />
        </mxCell>
        <mxCell id="NV5Ebfo3lkB90F4JYU58-25" style="edgeStyle=orthogonalEdgeStyle;rounded=0;orthogonalLoop=1;jettySize=auto;html=1;entryX=0;entryY=0.5;entryDx=0;entryDy=0;" parent="1" source="YiKrchmCfp7j1CqisssC-24" target="NV5Ebfo3lkB90F4JYU58-14" edge="1">
          <mxGeometry relative="1" as="geometry">
            <Array as="points">
              <mxPoint x="540" y="633" />
              <mxPoint x="540" y="633" />
            </Array>
          </mxGeometry>
        </mxCell>
        <mxCell id="YiKrchmCfp7j1CqisssC-24" value="&lt;font style=&quot;font-size: 15px; color: rgb(0, 0, 0);&quot;&gt;erp_cust_az12&lt;/font&gt;" style="rounded=1;whiteSpace=wrap;html=1;arcSize=28;fillColor=#ffe6cc;strokeColor=#d79b00;" parent="1" vertex="1">
          <mxGeometry x="343" y="620" width="165" height="40" as="geometry" />
        </mxCell>
        <mxCell id="NV5Ebfo3lkB90F4JYU58-26" style="edgeStyle=orthogonalEdgeStyle;rounded=0;orthogonalLoop=1;jettySize=auto;html=1;entryX=0;entryY=0.5;entryDx=0;entryDy=0;" parent="1" source="YiKrchmCfp7j1CqisssC-25" target="NV5Ebfo3lkB90F4JYU58-15" edge="1">
          <mxGeometry relative="1" as="geometry">
            <Array as="points">
              <mxPoint x="540" y="683" />
              <mxPoint x="540" y="683" />
            </Array>
          </mxGeometry>
        </mxCell>
        <mxCell id="YiKrchmCfp7j1CqisssC-25" value="&lt;font style=&quot;font-size: 15px; color: rgb(0, 0, 0);&quot;&gt;erp_lo_a101&lt;/font&gt;" style="rounded=1;whiteSpace=wrap;html=1;arcSize=28;fillColor=#ffe6cc;strokeColor=#d79b00;" parent="1" vertex="1">
          <mxGeometry x="343" y="670" width="165" height="40" as="geometry" />
        </mxCell>
        <mxCell id="NV5Ebfo3lkB90F4JYU58-27" style="edgeStyle=orthogonalEdgeStyle;rounded=0;orthogonalLoop=1;jettySize=auto;html=1;entryX=0;entryY=0.5;entryDx=0;entryDy=0;" parent="1" source="YiKrchmCfp7j1CqisssC-26" target="NV5Ebfo3lkB90F4JYU58-16" edge="1">
          <mxGeometry relative="1" as="geometry">
            <Array as="points">
              <mxPoint x="530" y="733" />
              <mxPoint x="530" y="733" />
            </Array>
          </mxGeometry>
        </mxCell>
        <mxCell id="YiKrchmCfp7j1CqisssC-26" value="&lt;font style=&quot;font-size: 15px; color: rgb(0, 0, 0);&quot;&gt;erp_px_cat_g1v2&lt;/font&gt;" style="rounded=1;whiteSpace=wrap;html=1;arcSize=28;fillColor=#ffe6cc;strokeColor=#d79b00;" parent="1" vertex="1">
          <mxGeometry x="343" y="720" width="165" height="40" as="geometry" />
        </mxCell>
        <mxCell id="NV5Ebfo3lkB90F4JYU58-9" value="" style="rounded=1;whiteSpace=wrap;html=1;arcSize=19;fillColor=none;strokeColor=#666666;fontColor=#333333;" parent="1" vertex="1">
          <mxGeometry x="607.25" y="420" width="185.5" height="360" as="geometry" />
        </mxCell>
        <mxCell id="NV5Ebfo3lkB90F4JYU58-10" value="&lt;font style=&quot;font-size: 20px;&quot;&gt;Silver Layer&lt;/font&gt;" style="rounded=1;whiteSpace=wrap;html=1;arcSize=28;fillColor=#f5f5f5;strokeColor=#666666;fontColor=#333333;" parent="1" vertex="1">
          <mxGeometry x="618" y="370" width="170" height="40" as="geometry" />
        </mxCell>
        <mxCell id="NV5Ebfo3lkB90F4JYU58-11" value="&lt;font style=&quot;font-size: 15px; color: rgb(0, 0, 0);&quot;&gt;crm_sales_details&lt;/font&gt;" style="rounded=1;whiteSpace=wrap;html=1;arcSize=28;fillColor=#f5f5f5;strokeColor=#666666;fontColor=#333333;" parent="1" vertex="1">
          <mxGeometry x="617.5" y="433" width="165" height="40" as="geometry" />
        </mxCell>
        <mxCell id="NV5Ebfo3lkB90F4JYU58-12" value="&lt;font style=&quot;font-size: 15px; color: rgb(0, 0, 0);&quot;&gt;crm_cust_info&lt;/font&gt;" style="rounded=1;whiteSpace=wrap;html=1;arcSize=28;fillColor=#f5f5f5;strokeColor=#666666;fontColor=#333333;" parent="1" vertex="1">
          <mxGeometry x="617.5" y="483" width="165" height="40" as="geometry" />
        </mxCell>
        <mxCell id="NV5Ebfo3lkB90F4JYU58-13" value="&lt;font style=&quot;font-size: 15px; color: rgb(0, 0, 0);&quot;&gt;crm_prd_info&lt;/font&gt;" style="rounded=1;whiteSpace=wrap;html=1;arcSize=28;fillColor=#f5f5f5;strokeColor=#666666;fontColor=#333333;" parent="1" vertex="1">
          <mxGeometry x="617.5" y="533" width="165" height="40" as="geometry" />
        </mxCell>
        <mxCell id="NV5Ebfo3lkB90F4JYU58-14" value="&lt;font style=&quot;font-size: 15px; color: rgb(0, 0, 0);&quot;&gt;erp_cust_az12&lt;/font&gt;" style="rounded=1;whiteSpace=wrap;html=1;arcSize=28;" parent="1" vertex="1">
          <mxGeometry x="620.5" y="613" width="165" height="40" as="geometry" />
        </mxCell>
        <mxCell id="NV5Ebfo3lkB90F4JYU58-15" value="&lt;font style=&quot;font-size: 15px; color: rgb(0, 0, 0);&quot;&gt;erp_lo_a101&lt;/font&gt;" style="rounded=1;whiteSpace=wrap;html=1;arcSize=28;" parent="1" vertex="1">
          <mxGeometry x="620.5" y="663" width="165" height="40" as="geometry" />
        </mxCell>
        <mxCell id="NV5Ebfo3lkB90F4JYU58-16" value="&lt;font style=&quot;font-size: 15px; color: rgb(0, 0, 0);&quot;&gt;erp_px_cat_g1v2&lt;/font&gt;" style="rounded=1;whiteSpace=wrap;html=1;arcSize=28;" parent="1" vertex="1">
          <mxGeometry x="620.5" y="713" width="165" height="40" as="geometry" />
        </mxCell>
        <mxCell id="NV5Ebfo3lkB90F4JYU58-28" value="&lt;font style=&quot;font-size: 25px;&quot;&gt;&lt;b&gt;Data Flow Digrame&lt;/b&gt;&lt;/font&gt;" style="text;strokeColor=none;align=left;fillColor=none;html=1;verticalAlign=middle;whiteSpace=wrap;rounded=0;" parent="1" vertex="1">
          <mxGeometry x="69" y="250" width="231" height="50" as="geometry" />
        </mxCell>
        <mxCell id="_nqC-rfBvdch_O4kbkNK-1" value="" style="rounded=1;whiteSpace=wrap;html=1;arcSize=19;fillColor=none;strokeColor=#d6b656;" vertex="1" parent="1">
          <mxGeometry x="870" y="420" width="185.5" height="360" as="geometry" />
        </mxCell>
        <mxCell id="_nqC-rfBvdch_O4kbkNK-2" value="&lt;font style=&quot;font-size: 20px;&quot;&gt;Silver Layer&lt;/font&gt;" style="rounded=1;whiteSpace=wrap;html=1;arcSize=28;fillColor=#fff2cc;strokeColor=#d6b656;" vertex="1" parent="1">
          <mxGeometry x="880.75" y="370" width="170" height="40" as="geometry" />
        </mxCell>
        <mxCell id="_nqC-rfBvdch_O4kbkNK-3" value="&lt;font style=&quot;font-size: 15px; color: rgb(0, 0, 0);&quot;&gt;Fact_Sales&lt;/font&gt;" style="rounded=1;whiteSpace=wrap;html=1;arcSize=28;fillColor=#fff2cc;strokeColor=#d6b656;" vertex="1" parent="1">
          <mxGeometry x="880.25" y="460" width="165" height="40" as="geometry" />
        </mxCell>
        <mxCell id="_nqC-rfBvdch_O4kbkNK-5" value="&lt;font style=&quot;font-size: 15px; color: rgb(0, 0, 0);&quot;&gt;dim_customers&lt;/font&gt;" style="rounded=1;whiteSpace=wrap;html=1;arcSize=28;fillColor=#fff2cc;strokeColor=#d6b656;" vertex="1" parent="1">
          <mxGeometry x="880.75" y="573" width="165" height="40" as="geometry" />
        </mxCell>
        <mxCell id="_nqC-rfBvdch_O4kbkNK-8" value="&lt;font style=&quot;font-size: 15px; color: rgb(0, 0, 0);&quot;&gt;dim_products&lt;/font&gt;" style="rounded=1;whiteSpace=wrap;html=1;arcSize=28;fillColor=#fff2cc;strokeColor=#d6b656;" vertex="1" parent="1">
          <mxGeometry x="880.25" y="640" width="165" height="40" as="geometry" />
        </mxCell>
        <mxCell id="_nqC-rfBvdch_O4kbkNK-13" value="" style="endArrow=classic;html=1;rounded=0;exitX=1;exitY=0.5;exitDx=0;exitDy=0;entryX=0;entryY=0.5;entryDx=0;entryDy=0;" edge="1" parent="1" source="NV5Ebfo3lkB90F4JYU58-11" target="_nqC-rfBvdch_O4kbkNK-3">
          <mxGeometry width="50" height="50" relative="1" as="geometry">
            <mxPoint x="730" y="590" as="sourcePoint" />
            <mxPoint x="850" y="510" as="targetPoint" />
          </mxGeometry>
        </mxCell>
        <mxCell id="_nqC-rfBvdch_O4kbkNK-14" value="" style="endArrow=classic;html=1;rounded=0;exitX=1;exitY=0.5;exitDx=0;exitDy=0;entryX=0;entryY=0.5;entryDx=0;entryDy=0;" edge="1" parent="1" source="NV5Ebfo3lkB90F4JYU58-12" target="_nqC-rfBvdch_O4kbkNK-5">
          <mxGeometry width="50" height="50" relative="1" as="geometry">
            <mxPoint x="730" y="590" as="sourcePoint" />
            <mxPoint x="780" y="540" as="targetPoint" />
          </mxGeometry>
        </mxCell>
        <mxCell id="_nqC-rfBvdch_O4kbkNK-15" value="" style="endArrow=classic;html=1;rounded=0;exitX=1;exitY=0.5;exitDx=0;exitDy=0;entryX=0;entryY=0.5;entryDx=0;entryDy=0;" edge="1" parent="1" target="_nqC-rfBvdch_O4kbkNK-8">
          <mxGeometry width="50" height="50" relative="1" as="geometry">
            <mxPoint x="782.25" y="550" as="sourcePoint" />
            <mxPoint x="880.25" y="640" as="targetPoint" />
          </mxGeometry>
        </mxCell>
        <mxCell id="_nqC-rfBvdch_O4kbkNK-17" value="" style="endArrow=classic;html=1;rounded=0;exitX=1;exitY=0.5;exitDx=0;exitDy=0;entryX=0;entryY=0.5;entryDx=0;entryDy=0;" edge="1" parent="1" source="NV5Ebfo3lkB90F4JYU58-14" target="_nqC-rfBvdch_O4kbkNK-5">
          <mxGeometry width="50" height="50" relative="1" as="geometry">
            <mxPoint x="830" y="640" as="sourcePoint" />
            <mxPoint x="927.75" y="750" as="targetPoint" />
          </mxGeometry>
        </mxCell>
        <mxCell id="_nqC-rfBvdch_O4kbkNK-18" value="" style="endArrow=classic;html=1;rounded=0;exitX=1;exitY=0.5;exitDx=0;exitDy=0;entryX=0;entryY=0.5;entryDx=0;entryDy=0;" edge="1" parent="1" target="_nqC-rfBvdch_O4kbkNK-5">
          <mxGeometry width="50" height="50" relative="1" as="geometry">
            <mxPoint x="785.25" y="680" as="sourcePoint" />
            <mxPoint x="880.25" y="640" as="targetPoint" />
          </mxGeometry>
        </mxCell>
        <mxCell id="_nqC-rfBvdch_O4kbkNK-19" value="" style="endArrow=classic;html=1;rounded=0;exitX=1;exitY=0.5;exitDx=0;exitDy=0;entryX=0;entryY=0.75;entryDx=0;entryDy=0;" edge="1" parent="1" target="_nqC-rfBvdch_O4kbkNK-8">
          <mxGeometry width="50" height="50" relative="1" as="geometry">
            <mxPoint x="785.25" y="740" as="sourcePoint" />
            <mxPoint x="880.25" y="700" as="targetPoint" />
            <Array as="points" />
          </mxGeometry>
        </mxCell>
      </root>
    </mxGraphModel>
  </diagram>
</mxfile>
